<svg width="9" height="8" viewBox="0 0 9 8" fill="none" xmlns="http://www.w3.org/2000/svg">
<path d="M7.49991 0.469923C7.64027 0.470568 7.77471 0.526614 7.87396 0.625869C7.97322 0.725124 8.02926 0.859557 8.02991 0.999923L8.02991 5.99992C8.03242 6.0711 8.02057 6.14205 7.99507 6.20854C7.96956 6.27504 7.93093 6.33572 7.88146 6.38696C7.832 6.4382 7.77272 6.47895 7.70717 6.50678C7.64162 6.53462 7.57113 6.54896 7.49991 6.54896C7.42869 6.54896 7.3582 6.53462 7.29264 6.50678C7.22709 6.47895 7.16781 6.4382 7.11835 6.38696C7.06889 6.33572 7.03025 6.27504 7.00475 6.20854C6.97924 6.14205 6.9674 6.0711 6.96991 5.99992L6.96991 2.27992L1.87491 7.37492C1.77545 7.47438 1.64056 7.53025 1.49991 7.53025C1.35926 7.53025 1.22436 7.47438 1.12491 7.37492C1.02545 7.27547 0.969578 7.14058 0.969578 6.99992C0.969578 6.85927 1.02545 6.72438 1.12491 6.62492L6.21991 1.52992L2.49991 1.52992C2.36258 1.52508 2.2325 1.46711 2.13706 1.36825C2.04162 1.26939 1.98829 1.13734 1.98829 0.999923C1.98829 0.86251 2.04162 0.730462 2.13706 0.631597C2.2325 0.532732 2.36258 0.474771 2.49991 0.469923L7.49991 0.469923Z" fill="white"/>
</svg>
