<svg width="31" height="32" viewBox="0 0 31 32" fill="none" xmlns="http://www.w3.org/2000/svg">
<g clip-path="url(#clip0_1_304)">
<path fill-rule="evenodd" clip-rule="evenodd" d="M22.9289 16.6579C22.9271 16.2411 23.385 15.9855 23.7388 16.2057L29.2379 19.6282C29.3984 19.728 29.4963 19.9032 29.4972 20.0922C29.4994 20.5262 29.0212 20.7915 28.6541 20.5599L23.1761 17.1038C23.0229 17.0072 22.9297 16.839 22.9289 16.6579ZM23.1792 17.1015L28.6411 20.5449C29.0005 20.7715 29.4685 20.5132 29.4685 20.0885C29.4685 19.902 29.3722 19.7287 29.2138 19.6302L23.7304 16.221C23.3844 16.0059 22.9367 16.2547 22.9367 16.6621C22.9367 16.8405 23.0283 17.0064 23.1792 17.1015Z" fill="black"/>
<path fill-rule="evenodd" clip-rule="evenodd" d="M19.1653 21.2916L24.5117 24.6808C24.9388 24.9541 25.3649 25.2287 25.7908 25.5033C26.9291 26.2371 28.6221 27.4505 28.8604 27.6411C29.0987 27.8317 29.1456 28.0153 29.1463 28.213C29.1502 29.3132 29.158 30.3599 29.1463 31.46C29.1434 31.7378 29.5357 31.9298 29.8135 31.9302C30.0923 31.9306 30.4874 31.7388 30.4846 31.46C30.4708 30.0725 30.4826 28.6838 30.4944 27.2955C30.5 26.6385 30.5056 25.9816 30.5084 25.325L30.5007 19.1826L30.5116 15.8836C30.5119 15.7731 30.5162 15.6432 30.5208 15.5056C30.5324 15.1543 30.5456 14.7528 30.4987 14.4969C30.4863 14.4293 30.4481 14.4039 30.3998 14.3719C30.3877 14.3638 30.375 14.3553 30.3618 14.3457C29.4022 13.7376 28.4377 13.1363 27.4732 12.5349C26.0508 11.6481 24.6282 10.7612 23.2208 9.85221C23.0591 9.74782 22.9617 9.56842 22.9617 9.37599L22.9615 4.68767C22.9615 4.49556 22.8645 4.3163 22.7029 4.21239C21.9616 3.73567 21.2083 3.27461 20.4563 2.81434L20.4552 2.81371L20.4498 2.81039C20.2662 2.69799 20.0299 2.82699 20.0264 3.04227C20.0069 4.23947 20.0131 5.43857 20.0192 6.63714C20.0227 7.3209 20.0262 8.0045 20.0249 8.68747L20.0393 19.8837C20.0395 20.1077 19.791 20.2421 19.6039 20.1189L19.6036 20.1187C19.2874 19.9105 18.9714 19.7025 18.6528 19.4978C18.4889 19.3925 18.389 19.2115 18.3891 19.0167L18.3939 1.90112C18.3939 1.69166 18.2781 1.50015 18.0971 1.39477C17.7557 1.19608 17.4238 0.9783 17.0918 0.76042C16.8307 0.58911 16.5695 0.417737 16.3036 0.255527C16.0565 0.104829 15.8506 0.210253 15.846 0.499618C15.8035 3.14218 15.8295 15.4785 15.8361 18.5591L15.8368 18.8979C15.8371 19.0752 15.9304 19.2391 16.0819 19.3312C16.7722 19.7508 17.4519 20.1894 18.1312 20.6277C18.4756 20.8499 18.8198 21.072 19.1653 21.2916ZM23.1792 17.1015L28.6411 20.5449C29.0005 20.7715 29.4685 20.5132 29.4685 20.0885C29.4685 19.902 29.3722 19.7287 29.2138 19.6302L23.7304 16.221C23.3844 16.0059 22.9367 16.2547 22.9367 16.6621C22.9367 16.8405 23.0283 17.0064 23.1792 17.1015Z" fill="black"/>
<path d="M14.1734 31.9482C14.4874 31.9487 14.7421 31.6944 14.7422 31.3804L14.7441 24.7326C14.7441 24.687 14.7447 24.6267 14.7457 24.555L14.7617 22.7927C14.7642 22.5112 14.4559 22.3368 14.216 22.4841L12.1833 23.7317L10.5069 24.7819L8.76975 25.881C8.47537 26.0666 8.17511 26.244 7.88214 26.4321C7.7253 26.5327 7.63289 26.7061 7.63179 26.8925C7.62578 27.9139 7.61195 30.9225 7.62024 31.7161C7.62024 31.8415 7.72202 31.9431 7.84743 31.9429L8.06534 31.9425C9.04252 31.9406 10.5139 31.9393 10.5409 31.9393C10.5417 31.9393 10.5417 31.9393 10.5425 31.9393L12.2387 31.9454L14.1734 31.9482Z" fill="black"/>
<path d="M15.8012 28.1794C15.8015 29.2542 15.7876 30.329 15.7997 31.4038C15.8032 31.7141 16.0576 31.9617 16.3679 31.96L18.319 31.9496L20.0767 31.9557C20.8339 31.9539 21.591 31.9553 22.3481 31.96C22.6636 31.9619 22.9208 31.7069 22.9207 31.3913L22.9199 26.9681C22.9199 26.7756 22.8225 26.5963 22.661 26.4916L21.2124 25.5521C20.9466 25.3781 20.6735 25.1773 20.3905 25.0128L18.345 23.7681C17.8517 23.4659 17.3646 23.1539 16.8837 22.8322C16.7918 22.7717 16.6996 22.7099 16.6069 22.6483C16.2522 22.4121 15.8088 22.6693 15.8082 23.0955L15.8012 28.1794Z" fill="black"/>
<path fill-rule="evenodd" clip-rule="evenodd" d="M7.64711 16.6579C7.64889 16.2411 7.19104 15.9855 6.83719 16.2057L1.33805 19.6282C1.17764 19.728 1.07973 19.9032 1.07878 20.0922C1.07662 20.5262 1.55475 20.7915 1.92188 20.5599L7.39995 17.1038C7.55312 17.0072 7.64633 16.839 7.64711 16.6579ZM7.39684 17.1015L1.93485 20.5449C1.57553 20.7715 1.10749 20.5132 1.10749 20.0885C1.10749 19.902 1.20379 19.7287 1.36217 19.6302L6.84557 16.221C7.19157 16.0059 7.63926 16.2547 7.63926 16.6621C7.63926 16.8405 7.54773 17.0064 7.39684 17.1015Z" fill="black"/>
<path fill-rule="evenodd" clip-rule="evenodd" d="M11.4106 21.2916L6.06425 24.6808C5.63716 24.9541 5.21113 25.2287 4.78517 25.5033C3.64693 26.2371 1.95392 27.4505 1.71563 27.6411C1.47735 27.8317 1.43039 28.0153 1.42969 28.213C1.42577 29.3132 1.41799 30.3599 1.42969 31.46C1.43264 31.7378 1.04034 31.9298 0.76249 31.9302C0.483687 31.9306 0.0885902 31.7388 0.0913715 31.46C0.105214 30.0725 0.0934074 28.6838 0.0816053 27.2955C0.0760199 26.6385 0.0704355 25.9816 0.0675708 25.325L0.0752954 19.1826L0.0643901 15.8836C0.0640704 15.7731 0.0597788 15.6432 0.0552332 15.5056C0.0436265 15.1543 0.030364 14.7528 0.0773407 14.4969C0.0897368 14.4293 0.127942 14.4039 0.176199 14.3719C0.188305 14.3638 0.201044 14.3553 0.214167 14.3457C1.17379 13.7376 2.13826 13.1363 3.10281 12.5349C4.52521 11.6481 5.94778 10.7612 7.35523 9.85221C7.51688 9.74782 7.61427 9.56842 7.61428 9.37599L7.61448 4.68767C7.61449 4.49556 7.71151 4.3163 7.8731 4.21239C8.61443 3.73567 9.36773 3.27461 10.1197 2.81434L10.1208 2.81371L10.1262 2.81039C10.3098 2.69799 10.5461 2.82699 10.5496 3.04227C10.5691 4.23947 10.5629 5.43857 10.5568 6.63714C10.5533 7.3209 10.5498 8.0045 10.5511 8.68747L10.5367 19.8837C10.5365 20.1077 10.785 20.2421 10.9721 20.1189L10.9724 20.1187C11.2886 19.9105 11.6046 19.7025 11.9232 19.4978C12.0871 19.3925 12.187 19.2115 12.1869 19.0167L12.1821 1.90112C12.1821 1.69166 12.2979 1.50015 12.4789 1.39477C12.8202 1.19608 13.1522 0.9783 13.4842 0.76042C13.7453 0.58911 14.0065 0.417737 14.2724 0.255527C14.5195 0.104829 14.7254 0.210253 14.73 0.499618C14.7725 3.14218 14.7465 15.4785 14.7399 18.5591L14.7392 18.8979C14.7389 19.0752 14.6455 19.2391 14.4941 19.3312C13.8038 19.7508 13.1241 20.1894 12.4448 20.6277C12.1004 20.8499 11.7562 21.072 11.4106 21.2916ZM7.39684 17.1015L1.93485 20.5449C1.57553 20.7715 1.10749 20.5132 1.10749 20.0885C1.10749 19.902 1.20379 19.7287 1.36217 19.6302L6.84557 16.221C7.19157 16.0059 7.63926 16.2547 7.63926 16.6621C7.63926 16.8405 7.54773 17.0064 7.39684 17.1015Z" fill="black"/>
</g>
<defs>
<clipPath id="clip0_1_304">
<rect width="30.5005" height="32" fill="white"/>
</clipPath>
</defs>
</svg>
